<svg width="25" height="24" viewBox="0 0 25 24" fill="none" xmlns="http://www.w3.org/2000/svg">
<path opacity="0.5" d="M2.91544 18.166L6.52539 21.7632C6.67293 21.9107 6.74882 22.085 6.75305 22.2859C6.75731 22.4869 6.68142 22.6654 6.52539 22.8214C6.37784 22.9775 6.20358 23.0555 6.00259 23.0555C5.80162 23.0555 5.62314 22.9775 5.46712 22.8214L0.730226 18.0846C0.628475 17.9828 0.555552 17.8768 0.511456 17.7666C0.46736 17.6563 0.445312 17.5393 0.445312 17.4155C0.445312 17.2832 0.46736 17.1641 0.511456 17.0581C0.555552 16.9521 0.628475 16.8482 0.730226 16.7464L5.5002 11.9765C5.64774 11.829 5.82199 11.7531 6.02296 11.7488C6.22393 11.7446 6.40243 11.8205 6.55846 11.9765C6.706 12.1325 6.77977 12.3089 6.77977 12.5056C6.77977 12.7024 6.706 12.8745 6.55846 13.0221L2.91544 16.665H23.1223C23.3411 16.665 23.5208 16.7354 23.6616 16.8762C23.8024 17.017 23.8727 17.1967 23.8727 17.4155C23.8727 17.6343 23.8024 17.8141 23.6616 17.9548C23.5208 18.0956 23.3411 18.166 23.1223 18.166H2.91544ZM22.3413 7.17346H2.13448C1.9157 7.17346 1.73594 7.10307 1.59518 6.9623C1.45441 6.82154 1.38402 6.64178 1.38402 6.423C1.38402 6.20422 1.45441 6.02445 1.59518 5.88369C1.73594 5.74292 1.9157 5.67253 2.13448 5.67253H22.3413L18.711 2.04225C18.5635 1.89471 18.4876 1.72045 18.4833 1.51948C18.4791 1.31852 18.555 1.14002 18.711 0.983986C18.8586 0.827954 19.0328 0.749939 19.2338 0.749939C19.4348 0.749939 19.609 0.827954 19.7566 0.983986L24.5265 5.75392C24.6283 5.8557 24.7033 5.95957 24.7517 6.06556C24.8 6.17156 24.8242 6.29071 24.8242 6.423C24.8242 6.54679 24.8 6.6617 24.7517 6.7677C24.7033 6.87371 24.6283 6.97759 24.5265 7.07934L19.7896 11.8289C19.6421 11.9765 19.4657 12.0524 19.2605 12.0566C19.0553 12.0609 18.8789 11.985 18.7314 11.8289C18.5753 11.6729 18.4973 11.4965 18.4973 11.2998C18.4973 11.1031 18.5753 10.9267 18.7314 10.7707L22.3413 7.17346Z" fill="#333333"/>
</svg>
